<svg width="48" height="48" viewBox="0 0 48 48" fill="none" xmlns="http://www.w3.org/2000/svg"><g clip-path="url(#a)"><path d="M13.969 2a11.743 11.743 0 0 0-2.686 8.163c-3.669.474-6.982 2.327-9.219 5.07A11.805 11.805 0 0 1 2 13.997C2 7.493 7.324 2.197 13.969 2z" fill="#3271EA"/><path d="M45.992 19.471c-.16 4.862-2.77 9.115-6.645 11.732a16.305 16.305 0 0 1-5.739 2.427c-3.48.427-6.924.367-10.434.367H13.143c-5.876 0-10.825-4.35-11.128-9.992L2 23.455c0-5.906 5.077-10.542 11.143-10.543.797 0 1.576.08 2.329.232C17.9 7.735 23.577 4 30.107 4l.407.005C39.02 4.208 46 10.762 46 18.999l-.008.473z" fill="url(#b)" fill-opacity=".35"/><path d="M30.514 4.005C39.02 4.208 46 10.762 46 18.999l-.008.473-.022.454c-.012.18-.029.359-.047.537l-2.925-1.524c-.034-6.395-5.502-11.756-12.533-11.935L30.093 7c-5.387.006-9.96 3.086-11.885 7.373l-.981 2.186-2.35-.474a8.724 8.724 0 0 0-1.29-.161l-.444-.012c-4.592 0-8.13 3.466-8.143 7.522l.012.424c.217 3.88 3.686 7.139 8.13 7.14h1.682l1.889 3h-3.57c-5.693-.001-10.515-4.084-11.086-9.469l-.042-.524-.015-.55c0-5.906 5.077-10.543 11.143-10.543.797 0 1.576.08 2.329.232C17.9 7.735 23.577 4 30.107 4l.407.005z" fill="#70757A"/><path d="M37.175 39.639l3.045-1.622.246-.132.896 1.431-3.274 1.744 3.274 1.747-.896 1.431-3.291-1.755V46h-1.752v-3.518l-3.292 1.756-.15-.237-.746-1.194 3.274-1.747-3.274-1.744.895-1.431.248.132 3.045 1.623v-3.516h1.752v3.515zM26.156 29.251l3.989-2.126.84 1.344.171.272-3.971 2.114 3.971 2.12-1.011 1.615-3.989-2.127v4.26h-1.983v-4.26l-3.988 2.127-.84-1.343-.171-.272 3.969-2.118-3.686-1.964-.283-.152 1.01-1.616.248.132 3.74 1.994v-4.26h1.984v4.26zM41 25.541l3.988-2.126.841 1.344.171.272-3.972 2.114L46 29.265l-1.012 1.615L41 28.753v4.26h-1.983v-4.26l-3.989 2.127-.84-1.343-.17-.272 3.968-2.117-3.685-1.965-.283-.152 1.01-1.616.247.132 3.742 1.994v-4.26H41v4.26z" fill="#303134"/></g><defs><linearGradient id="b" x1="20.578" y1="8.224" x2="28.911" y2="32.798" gradientUnits="userSpaceOnUse"><stop offset=".072" stop-color="#70757A"/><stop offset=".625" stop-color="#ABABAB" stop-opacity="0"/></linearGradient><clipPath id="a"><path fill="#fff" d="M0 0h48v48H0z"/></clipPath></defs></svg>