<svg width="48" height="48" viewBox="0 0 48 48" fill="none" xmlns="http://www.w3.org/2000/svg"><path d="M13.969 2a11.743 11.743 0 0 0-2.686 8.163c-3.669.474-6.982 2.327-9.219 5.07A11.805 11.805 0 0 1 2 13.997C2 7.493 7.324 2.197 13.969 2z" fill="#3271EA"/><path d="M45.992 19.471c-.16 4.862-2.77 9.115-6.645 11.732a16.305 16.305 0 0 1-5.739 2.427c-3.48.427-6.924.367-10.434.367H13.143c-5.876 0-10.825-4.35-11.128-9.992L2 23.455c0-5.906 5.077-10.542 11.143-10.543.797 0 1.576.08 2.329.232C17.9 7.735 23.577 4 30.107 4l.407.005C39.02 4.208 46 10.762 46 18.999l-.008.473z" fill="url(#a)" fill-opacity=".35"/><path d="M30.514 4.005C39.02 4.208 46 10.762 46 18.999l-.008.473-.022.454c-.031.482-.088.957-.166 1.426l-2.813-2.737c-.213-6.25-5.614-11.435-12.526-11.611L30.093 7c-5.387.006-9.96 3.086-11.885 7.373l-.981 2.186-2.35-.474a8.724 8.724 0 0 0-1.29-.161l-.444-.012c-4.592 0-8.13 3.466-8.143 7.522l.012.424c.217 3.88 3.686 7.139 8.13 7.14h2.561a8.538 8.538 0 0 0 2 2.998v.001h-4.56c-5.693 0-10.515-4.083-11.086-9.468l-.042-.524-.015-.55c0-5.906 5.077-10.543 11.143-10.543.797 0 1.576.08 2.329.232C17.9 7.735 23.577 4 30.107 4l.407.005z" fill="#70757A"/><path d="M35.527 36.433l.036.034a5.478 5.478 0 0 1 0 7.898c-2.242 2.18-5.876 2.18-8.117 0a5.479 5.479 0 0 1 0-7.898l4.058-3.948 4.023 3.914zM27.875 23.915l.035.034a5.479 5.479 0 0 1 0 7.897c-2.24 2.18-5.875 2.18-8.116 0a5.479 5.479 0 0 1 0-7.897L23.852 20l4.023 3.915zM44.136 23.914l.035.035a5.478 5.478 0 0 1 0 7.897c-2.24 2.18-5.874 2.18-8.115 0a5.479 5.479 0 0 1-.001-7.897L40.113 20l4.023 3.914z" fill="#0B57D0"/><defs><linearGradient id="a" x1="20.578" y1="8.224" x2="28.911" y2="32.798" gradientUnits="userSpaceOnUse"><stop offset=".072" stop-color="#70757A"/><stop offset=".625" stop-color="#ABABAB" stop-opacity="0"/></linearGradient></defs></svg>