<svg width="48" height="48" viewBox="0 0 48 48" fill="none" xmlns="http://www.w3.org/2000/svg"><g clip-path="url(#a)"><path d="M13.969 2a11.743 11.743 0 0 0-2.686 8.163c-3.669.474-6.982 2.327-9.219 5.07A11.805 11.805 0 0 1 2 13.997C2 7.493 7.324 2.197 13.969 2z" fill="#3271EA"/><path d="M45.992 19.471c-.16 4.862-2.77 9.115-6.645 11.732a16.305 16.305 0 0 1-5.739 2.427c-3.48.427-6.924.367-10.434.367H13.143c-5.876 0-10.825-4.35-11.128-9.992L2 23.455c0-5.906 5.077-10.542 11.143-10.543.797 0 1.576.08 2.329.232C17.9 7.735 23.577 4 30.107 4l.407.005C39.02 4.208 46 10.762 46 18.999l-.008.473z" fill="url(#b)" fill-opacity=".35"/><path d="M30.514 4.005c7.34.175 13.541 5.08 15.104 11.714h-3.113c-1.493-4.882-6.232-8.567-12.04-8.715L30.093 7c-5.387.006-9.96 3.086-11.885 7.373l-.981 2.186-2.35-.474a8.724 8.724 0 0 0-1.29-.161l-.444-.012c-3.683 0-6.688 2.23-7.74 5.206l-2.39 2.326a8.678 8.678 0 0 0-.954 1.102l-.002-.017-.042-.524-.015-.55c0-5.906 5.077-10.543 11.143-10.543.797 0 1.576.08 2.329.232C17.9 7.735 23.577 4 30.107 4l.407.005z" fill="#70757A"/><path d="M21.796 36.153l.035.033a5.479 5.479 0 0 1 0 7.898c-2.241 2.18-5.875 2.18-8.116 0a5.479 5.479 0 0 1 0-7.898l4.058-3.948 4.023 3.915zM13.187 25.559l.036.035a5.479 5.479 0 0 1 0 7.897c-2.242 2.18-5.875 2.18-8.116 0a5.479 5.479 0 0 1 0-7.897l4.057-3.949 4.023 3.914z" fill="#0B57D0"/><path fill-rule="evenodd" clip-rule="evenodd" d="M33.06 18.72l-6.667 13.756h6l-.744 12.243 14.744-16.037-5.335-.022 5.335-9.94H33.059z" fill="#DA4F00"/></g><defs><linearGradient id="b" x1="20.578" y1="8.224" x2="28.911" y2="32.798" gradientUnits="userSpaceOnUse"><stop offset=".072" stop-color="#70757A"/><stop offset=".625" stop-color="#ABABAB" stop-opacity="0"/></linearGradient><clipPath id="a"><path fill="#fff" d="M0 0h48v48H0z"/></clipPath></defs></svg>